Coordinates
version=1
nRows=24
nColumns=24
inDegrees=yes

Units are S.I. units (second, meters, Newtons, ...)
Angles are in degrees.

endheader
time	pelvis_tilt	pelvis_list	pelvis_rotation	pelvis_tx	pelvis_ty	pelvis_tz	hip_flexion_r	hip_adduction_r	hip_rotation_r	knee_angle_r	ankle_angle_r	subtalar_angle_r	mtp_angle_r	hip_flexion_l	hip_adduction_l	hip_rotation_l	knee_angle_l	ankle_angle_l	subtalar_angle_l	mtp_angle_l	lumbar_extension	lumbar_bending	lumbar_rotation
      0.96716667	     -1.38444286	     -2.42820375	      1.98645294	     -0.15409173	      1.01910242	      0.33075272	    -11.13304660	      7.06287563	     -2.51975308	     -8.78547934	     12.29117904	     -3.79264956	      0.83069880	     18.47435681	     -0.65630477	     -2.96862226	      7.64364987	      2.02502086	     -2.47502394	     -2.70396461	     -4.30135612	      0.14646073	      3.64733817
      0.97133333	     -1.36776184	     -2.33432152	      1.93321174	     -0.14840153	      1.01841332	      0.33043626	    -11.22442440	      6.93204456	     -2.46931267	     -9.34644407	     12.41719206	     -3.87590717	      0.83930649	     18.45807024	     -0.49961611	     -2.68707759	      7.43305549	      2.04698548	     -2.40417006	     -2.65813767	     -4.31297257	      0.01918573	      3.65022910
      0.97550000	     -1.34350864	     -2.22510701	      1.87002091	     -0.14270119	      1.01776376	      0.33009406	    -11.26268326	      6.76332867	     -2.54982745	    -10.04633115	     12.69393469	     -3.58920150	      0.88847411	     18.43784532	     -0.32864536	     -2.42812065	      7.14407723	      2.03420920	     -2.38904411	     -2.40039892	     -4.32759774	     -0.12327812	      3.65825262
      0.97966667	     -1.32636263	     -2.09929203	      1.81817703	     -0.13697451	      1.01714271	      0.32974376	    -11.28028219	      6.58432986	     -2.59990678	    -10.76939872	     12.89490869	     -3.44730823	      0.99562995	     18.43456426	     -0.13921186	     -2.16342651	      6.77493205	      1.97108740	     -2.42235101	     -1.85830011	     -4.32431550	     -0.27989560	      3.64773960
      0.98383333	     -1.26411728	     -1.97157601	      1.77551970	     -0.13124110	      1.01662563	      0.32941696	    -11.35377087	      6.42324142	     -2.53371280	    -11.46332995	     12.93008944	     -3.59952019	      1.01009227	     18.40031868	      0.04850047	     -1.93842419	      6.31394927	      1.92413200	     -2.42347288	     -1.80030011	     -4.37898973	     -0.46170616	      3.64571098
      0.98800000	     -1.19931064	     -1.82287939	      1.73197472	     -0.12548176	      1.01614778	      0.32908481	    -11.39707581	      6.23607434	     -2.49765185	    -12.22793822	     12.97286040	     -3.70263316	      1.03064859	     18.36679435	      0.25687748	     -1.73213309	      5.79485329	      1.83354071	     -2.46780325	     -1.73446942	     -4.43582754	     -0.65963282	      3.63937897
      0.99216667	     -1.13394865	     -1.66012333	      1.68662761	     -0.11970756	      1.01569557	      0.32869632	    -11.37062958	      6.00615750	     -2.63435645	    -13.15090938	     13.17975373	     -3.39190197	      1.17904175	     18.31744436	      0.48223641	     -1.45489954	      5.27058260	      1.58998243	     -2.73550536	     -1.31515911	     -4.48249027	     -0.88092025	      3.61390066
      0.99633333	     -1.04306734	     -1.49088065	      1.65811483	     -0.11392303	      1.01532907	      0.32832285	    -11.39063143	      5.79936827	     -2.61437801	    -14.01174778	     13.12488923	     -3.56350923	      1.20772012	     18.27463862	      0.71317485	     -1.28355468	      4.63794902	      1.46230850	     -2.80123271	     -1.23752585	     -4.56754232	     -1.09477064	      3.60772063
      1.00050000	     -0.95997072	     -1.32044084	      1.61856526	     -0.10812453	      1.01497132	      0.32794119	    -11.34720306	      5.57433778	     -2.66905806	    -14.98599238	     13.08740862	     -3.54114687	      3.08180171	     18.21751550	      0.94163568	     -1.02523690	      4.03555556	      1.06699658	     -3.18263323	      2.99618247	     -4.62469382	     -1.33468932	      3.56993104
      1.00466667	     -0.84820078	     -1.13075018	      1.59331155	     -0.10230813	      1.01469818	      0.32751395	    -11.30685960	      5.32404052	     -2.78514578	    -16.01511994	     13.05406778	     -3.47698268	      3.13376446	     18.14714415	      1.19323387	     -0.85812415	      3.36475517	      0.79482399	     -3.37699774	      3.03095413	     -4.73331499	     -1.58157278	      3.54360320
      1.00883333	     -0.74354206	     -0.94389790	      1.56928791	     -0.09649946	      1.01445810	      0.32707306	    -11.22670957	      5.07569253	     -2.89222548	    -17.09957107	     12.95614768	     -3.45056239	      3.23582055	     18.08511990	      1.44164118	     -0.64724888	      2.67415728	      0.48462574	     -3.69371207	      3.09814691	     -4.82451847	     -1.82427510	      3.50836340
      1.01300000	     -0.61304266	     -0.72962808	      1.54369312	     -0.09065475	      1.01430315	      0.32663439	    -11.15331667	      4.79751669	     -2.99735886	    -18.21814875	     12.74661196	     -3.51382402	      3.30930676	     17.99397183	      1.71296677	     -0.49600859	      1.96291043	      0.20886140	     -3.90956740	      3.14161668	     -4.94425018	     -2.11300316	      3.48132259
      1.01716667	     -0.49456984	     -0.54192290	      1.53073300	     -0.08486428	      1.01415106	      0.32611519	    -11.00790609	      4.52660375	     -3.20583482	    -19.44557044	     12.59344154	     -3.36930600	      3.52649023	     17.91925347	      1.96550772	     -0.25187693	      1.24778238	     -0.19640387	     -4.40002638	      3.24902113	     -5.05558716	     -2.33593861	      3.42433215
      1.02133333	     -0.35238933	     -0.32765078	      1.51174873	     -0.07903290	      1.01408451	      0.32559472	    -10.86593247	      4.22091313	     -3.41908579	    -20.70540937	     12.30149171	     -3.32284889	      3.91337012	     17.80332545	      2.24045842	     -0.02153930	      0.54393430	     -0.54852898	     -4.86160439	      3.41510388	     -5.18029515	     -2.59028680	      3.36875386
      1.02550000	     -0.21248447	     -0.11752214	      1.49746788	     -0.07321380	      1.01407118	      0.32508251	    -10.70101994	      3.92401493	     -3.60548385	    -21.98163513	     11.86459047	     -3.39975721	      4.02079176	     17.72258004	      2.50317202	      0.05563191	     -0.23313927	     -0.83160712	     -5.03176476	      3.45218037	     -5.30568907	     -2.89417990	      3.34243468
      1.02966667	     -0.03295216	      0.10180493	      1.51688502	     -0.06741627	      1.01413857	      0.32445002	    -10.54278872	      3.59738874	     -3.90758183	    -23.31703493	     11.39925097	     -3.36594937	      5.72506233	     17.54081650	      2.79740684	      0.46943891	     -0.88677512	     -1.36765191	     -5.80525317	      3.92554343	     -5.51128153	     -3.13251802	      3.25900192
      1.03383333	      0.05967389	      0.33337607	      1.47918375	     -0.06159622	      1.01413950	      0.32387921	    -10.23877061	      3.23113179	     -4.16911880	    -24.74450240	     10.87114318	     -3.27349128	      5.85477785	     17.51342062	      3.07604228	      0.46225466	     -1.69093961	     -1.54333573	     -5.88951114	      3.94832580	     -5.56660590	     -3.42781855	      3.21385650
      1.03800000	      0.16933558	      0.54851602	      1.48142407	     -0.05585316	      1.01417782	      0.32319577	     -9.90883310	      2.86121147	     -4.54320241	    -26.24669661	     10.39960071	     -3.03701276	      6.21489839	     17.47018421	      3.35263075	      0.58238767	     -2.48992434	     -1.81091074	     -6.18717153	      3.98848662	     -5.68014140	     -3.67594879	      3.11710232
      1.04216667	      0.31917671	      0.77993801	      1.46731489	     -0.05006476	      1.01435409	      0.32252712	     -9.62209987	      2.47030630	     -4.87119691	    -27.69867704	      9.53650268	     -3.10125955	     10.89172197	     17.34986118	      3.63978342	      0.71011835	     -3.23731882	     -2.02111201	     -6.51420574	      4.24315455	     -5.82322474	     -3.93823539	      3.07880168
      1.04633333	      0.48580959	      1.01121990	      1.45672547	     -0.04428654	      1.01459103	      0.32184976	     -9.32141305	      2.06276822	     -5.23969801	    -29.20735158	      8.72943445	     -3.05241083	     10.90397326	     17.21579137	      3.91969398	      0.76018273	     -3.99758880	     -2.14445475	     -6.65272801	      4.23691616	     -5.97866138	     -4.22054575	      3.03241664
      1.05050000	      0.63664834	      1.25374239	      1.45154150	     -0.03853162	      1.01483753	      0.32111392	     -8.97176318	      1.62126940	     -5.63486674	    -30.75874148	      7.87467489	     -2.96028900	     10.94592906	     17.08990316	      4.21661028	      0.83447618	     -4.74428889	     -2.24794154	     -6.82427846	      4.22360922	     -6.12593454	     -4.49605068	      2.96246175
      1.05466667	      0.74413567	      1.49711968	      1.46468298	     -0.03282003	      1.01504815	      0.32032055	     -8.54224298	      1.15819569	     -6.06380645	    -32.35778833	      7.02369571	     -2.79069615	     11.15277976	     17.00845481	      4.52412234	      0.97159418	     -5.48635047	     -2.38425369	     -7.09699391	      4.16382182	     -6.24528724	     -4.76602413	      2.79099014
      1.05883333	      0.91471721	      1.73811794	      1.45019015	     -0.02708205	      1.01541358	      0.31955623	     -8.17511771	      0.68588494	     -6.45861029	    -33.92297930	      5.95858428	     -2.75388321	     11.22549732	     16.83427280	      4.81461883	      1.01773567	     -6.19154992	     -2.36803086	     -7.22315849	      4.13865763	     -6.40814801	     -5.02032197	      2.75615765
      1.06300000	      1.04374439	      1.97168929	      1.45349025	     -0.02137859	      1.01573629	      0.31874847	     -7.73632343	      0.20654932	     -6.87186644	    -35.51417902	      4.85855593	     -2.71331935	     11.33979094	     16.69860568	      5.10363843	      1.08719225	     -6.88302559	     -2.34017664	     -7.33235001	      4.09713503	     -6.53282612	     -5.28332295	      2.67314253
